<?xml version="1.0" standalone="no"?>
<!DOCTYPE svg PUBLIC "-//W3C//DTD SVG 20010904//EN"
 "http://www.w3.org/TR/2001/REC-SVG-20010904/DTD/svg10.dtd">
<svg version="1.0" xmlns="http://www.w3.org/2000/svg"
 width="900.000000pt" height="900.000000pt" viewBox="0 0 900.000000 900.000000"
 preserveAspectRatio="xMidYMid meet">

<g transform="translate(0.000000,900.000000) scale(0.100000,-0.100000)"
fill="#000000" stroke="none">
<path d="M7395 6264 c-182 -20 -244 -30 -330 -51 -116 -28 -164 -44 -222 -72
-23 -12 -47 -21 -53 -21 -6 0 -28 -11 -50 -25 -22 -14 -42 -25 -45 -25 -12 0
-310 -203 -326 -221 -9 -11 -19 -19 -23 -19 -7 0 -116 -79 -126 -91 -16 -19
-150 -91 -212 -114 -166 -61 -222 -75 -294 -75 -86 0 -106 11 -230 134 -154
154 -392 287 -597 335 -68 16 -82 14 -116 -15 -28 -23 -31 -32 -31 -79 0 -30
-4 -56 -9 -60 -22 -13 -50 -194 -56 -357 -9 -250 -40 -320 -210 -471 -49 -45
-91 -87 -93 -94 -2 -7 -5 -13 -7 -13 -1 0 -47 -16 -101 -35 -225 -81 -397
-137 -559 -180 -57 -16 -82 -23 -157 -44 -18 -5 -64 -19 -103 -31 -75 -22
-140 -37 -220 -51 -181 -30 -389 -59 -431 -59 -20 0 -97 34 -208 90 -227 116
-242 116 -276 15 -19 -57 -30 -72 -102 -137 l-81 -73 -86 0 c-285 1 -315 7
-364 77 -20 29 -66 85 -102 123 -36 39 -65 73 -65 77 0 4 -10 17 -22 30 -13
13 -45 50 -73 83 -82 98 -90 107 -154 180 -33 38 -61 73 -61 77 0 4 -7 8 -15
8 -8 0 -15 6 -15 13 0 12 -46 81 -80 119 -8 9 -37 47 -65 84 -238 320 -397
475 -484 473 l-36 -1 28 -12 c32 -14 87 -98 87 -134 0 -17 7 -24 29 -28 21 -5
29 -12 29 -29 0 -12 27 -100 60 -196 57 -167 75 -225 157 -499 57 -192 83
-263 154 -420 84 -186 90 -239 41 -327 -18 -32 -67 -104 -109 -161 -42 -56
-101 -149 -133 -207 -52 -97 -55 -106 -38 -115 26 -14 96 -12 155 4 80 22 282
131 293 158 2 4 9 8 15 8 7 0 37 24 68 53 31 28 71 63 89 77 19 14 46 35 61
48 15 12 31 22 37 22 6 0 12 4 14 8 2 4 23 23 48 42 25 19 52 42 60 51 8 8 23
18 32 22 10 3 15 12 12 21 -8 20 17 32 30 15 17 -22 53 -39 80 -39 14 0 27 -4
30 -9 3 -4 27 -11 53 -14 35 -4 53 -12 68 -31 11 -14 26 -26 33 -26 7 0 12 -4
12 -8 0 -4 18 -27 40 -51 22 -23 40 -50 40 -60 0 -30 -64 -79 -140 -108 -25
-10 -25 -10 17 -32 107 -54 252 -60 330 -14 24 14 43 21 43 16 1 -4 9 2 19 15
11 12 26 20 34 16 11 -4 14 2 11 24 -3 24 1 31 19 37 42 14 67 16 67 5 0 -16
15 -12 40 10 28 24 34 25 51 4 7 -8 21 -13 31 -11 10 3 18 2 18 -3 0 -12 124
-39 131 -28 9 13 31 -18 35 -50 2 -15 -1 -63 -7 -107 -15 -103 -13 -145 6
-164 16 -16 48 -13 228 21 65 12 70 11 113 -11 24 -13 44 -28 44 -32 0 -5 7
-9 15 -9 8 0 15 -4 15 -10 0 -11 85 -71 97 -69 14 3 43 -13 43 -24 0 -5 -9 -2
-20 8 -12 11 -20 13 -20 6 0 -6 11 -16 24 -23 40 -18 87 10 205 119 31 29 62
53 69 53 6 0 12 7 12 16 0 9 -7 14 -17 13 -10 -1 -25 0 -33 4 -26 9 -103 29
-137 34 -33 5 -48 33 -18 33 8 0 15 5 15 12 0 6 12 0 28 -15 21 -20 35 -25 65
-23 21 2 40 -1 43 -5 3 -5 15 -14 27 -20 21 -11 21 -10 -2 15 -14 14 -20 26
-14 26 6 0 16 -7 23 -15 15 -18 34 -20 27 -2 -3 9 9 12 45 11 39 0 48 2 43 14
-5 12 -3 13 10 2 13 -11 19 -10 35 8 22 24 65 22 108 -5 21 -13 25 -13 35 1
10 13 18 14 54 3 23 -7 45 -16 49 -20 10 -10 44 -9 44 1 0 5 -7 17 -15 28 -33
44 -11 33 40 -20 30 -31 55 -50 55 -42 0 7 -10 20 -23 29 -12 8 -19 18 -16 21
3 3 17 -3 32 -14 33 -26 45 -26 21 2 -16 18 -16 20 -3 15 13 -4 16 -1 12 14
-3 10 0 19 6 19 6 0 11 -4 11 -10 0 -5 5 -10 11 -10 6 0 8 9 4 21 -7 21 -7 21
19 3 14 -11 26 -24 26 -30 0 -12 32 -44 44 -44 4 0 2 9 -4 21 -18 32 -2 36 26
6 35 -38 57 -37 33 2 -8 12 -9 23 -2 36 10 17 12 17 34 -7 23 -24 107 -48 94
-27 -4 5 -13 9 -21 9 -17 0 -18 8 -1 24 15 16 47 -1 40 -21 -2 -6 5 -18 17
-26 20 -14 19 -16 -57 -80 -43 -36 -96 -85 -119 -109 -23 -24 -79 -80 -125
-124 -97 -94 -152 -156 -238 -272 -35 -45 -67 -82 -73 -82 -7 0 -7 -4 0 -12
12 -16 4 -38 -28 -75 -65 -74 -120 -142 -120 -147 0 -9 132 64 156 85 11 11
25 19 31 19 15 0 118 62 173 103 25 18 64 41 88 50 24 10 53 26 64 37 12 11
27 20 33 20 6 0 17 9 25 20 8 11 22 20 31 20 10 0 19 3 21 8 2 4 26 18 53 32
28 14 52 27 55 30 3 3 73 39 155 79 83 40 157 76 165 81 8 4 40 13 70 20 30 8
59 17 65 22 5 4 18 8 30 8 12 0 25 4 31 10 16 16 182 29 249 20 125 -18 146
-19 142 -7 -2 7 -23 12 -48 12 -50 0 -73 11 -65 31 3 7 0 16 -6 20 -6 4 -8 3
-4 -4 3 -6 1 -14 -5 -18 -6 -3 -15 -1 -19 6 -4 7 -17 11 -28 8 -11 -3 -40 -2
-64 2 -27 5 -48 4 -55 -2 -9 -8 -13 -7 -13 3 0 9 -3 10 -8 4 -4 -5 -20 -11
-36 -13 l-28 -3 22 30 c24 35 63 49 84 32 9 -8 15 -8 18 -2 1 6 19 12 38 15
19 2 47 9 63 15 17 7 27 7 27 1 0 -6 7 -10 15 -10 8 0 15 -6 15 -14 0 -8 5
-18 12 -22 8 -5 9 0 6 14 -4 12 -2 22 3 22 5 0 9 7 9 16 0 8 4 13 8 10 4 -2 8
4 8 14 0 10 -4 16 -8 14 -4 -3 -8 6 -8 20 0 14 5 28 10 31 6 4 7 11 4 17 -5 7
2 9 19 4 21 -5 25 -3 21 9 -4 8 -10 15 -15 15 -5 0 -9 8 -9 19 0 22 -61 53
-67 34 -6 -18 -40 19 -35 38 2 9 -1 20 -7 23 -5 4 -8 13 -5 21 5 11 -1 13 -26
10 -25 -3 -30 -1 -26 12 5 12 1 14 -15 10 -16 -4 -19 -2 -15 11 4 11 -1 9 -14
-6 -11 -13 -27 -22 -37 -20 -10 2 -27 -4 -37 -14 -26 -24 -33 -15 -12 17 9 14
12 25 6 25 -6 0 -8 5 -5 11 4 6 10 8 13 5 8 -9 52 35 52 51 0 16 -47 -11 -68
-39 -7 -10 -18 -15 -24 -12 -6 4 -13 2 -17 -3 -3 -5 -22 -13 -41 -16 l-35 -7
25 20 c14 11 30 20 37 20 16 0 74 60 68 70 -3 4 6 10 18 14 13 3 41 17 63 32
60 41 230 124 253 124 12 0 21 4 21 9 0 5 29 19 65 32 36 12 65 29 65 36 0 7
-4 13 -10 13 -5 0 -10 8 -10 18 0 10 -8 27 -18 38 -26 27 -31 46 -20 67 6 12
13 15 21 9 7 -5 27 -13 45 -17 18 -4 36 -13 39 -21 3 -8 10 -14 16 -14 5 0 2
9 -7 19 -10 11 -15 25 -11 30 3 6 -1 11 -10 11 -12 0 -15 6 -10 22 6 17 4 20
-9 15 -12 -5 -17 -2 -15 11 3 34 -1 42 -23 42 -18 0 -20 2 -8 10 12 7 12 10
-4 16 -18 7 -18 8 3 16 15 5 21 14 17 23 -6 17 21 48 35 39 6 -3 2 -12 -8 -21
-10 -8 -12 -11 -5 -8 8 4 22 -2 33 -14 21 -22 25 -36 9 -26 -6 4 -17 1 -25 -5
-8 -6 -20 -8 -27 -4 -9 5 -8 2 1 -10 14 -16 16 -16 27 -2 11 15 12 15 18 1 3
-9 2 -13 -4 -10 -6 3 -10 1 -10 -6 0 -6 8 -9 20 -6 17 4 20 0 20 -24 0 -41 0
-41 22 -72 11 -15 23 -25 28 -22 5 3 11 -4 15 -15 4 -12 15 -20 28 -20 20 0
20 0 1 14 -21 16 -19 20 12 30 14 4 28 1 38 -9 9 -9 16 -13 16 -8 0 5 -5 14
-12 21 -16 16 4 16 22 0 8 -7 6 -3 -4 9 -10 13 -21 21 -25 19 -3 -2 -22 7 -41
21 -27 19 -30 24 -12 20 25 -6 29 5 7 23 -22 18 -18 32 5 20 26 -14 61 -4 54
15 -4 9 0 12 14 8 16 -4 19 -1 15 20 -3 14 -16 36 -29 48 -29 27 -31 44 -4 29
11 -6 25 -8 30 -5 6 3 10 0 10 -8 0 -23 27 -28 33 -6 3 10 1 22 -4 25 -16 10
-9 24 9 17 15 -6 15 -5 3 11 -8 10 -16 25 -17 34 -1 10 -5 26 -10 37 -7 17 -3
15 25 -7 18 -16 41 -28 50 -28 10 0 39 -22 64 -50 46 -50 57 -55 137 -64 l45
-5 -25 19 c-31 24 -19 38 14 16 50 -32 61 -15 20 33 -31 37 -18 42 16 6 24
-25 50 -33 50 -15 0 6 9 10 21 10 12 0 19 5 16 13 -2 6 -14 11 -27 9 -17 -2
-21 2 -16 14 3 8 6 23 6 32 0 12 3 13 12 4 20 -20 30 -14 16 11 -13 24 -14 28
-16 69 -1 15 -8 33 -15 40 -7 7 -16 21 -20 32 -6 15 -3 18 18 14 32 -7 32 5 0
20 -21 10 -27 9 -31 -3 -4 -8 -10 -13 -14 -10 -4 3 -10 -2 -14 -10 -3 -8 -12
-15 -21 -15 -8 0 -15 -7 -15 -15 0 -8 5 -15 10 -15 6 0 10 -4 10 -10 0 -21
-19 -9 -28 18 -6 15 -11 22 -11 15 -1 -7 -7 -10 -15 -7 -9 3 -12 12 -8 22 5
16 5 16 -11 0 -21 -21 -22 -39 -2 -32 19 8 19 -3 1 -22 -8 -8 -22 -11 -30 -8
-9 3 -16 2 -16 -4 0 -14 -53 -2 -67 15 -9 12 -13 11 -27 -9 -9 -12 -16 -17
-16 -11 0 6 -9 9 -20 6 -11 -3 -20 -1 -20 3 0 14 20 40 20 28 0 -7 6 -14 13
-17 12 -5 13 0 8 45 -2 11 -41 5 -41 -7 0 -20 -18 -38 -30 -30 -9 6 -9 9 0 15
9 6 9 13 1 28 -6 11 -11 30 -11 41 0 13 -6 21 -16 21 -10 0 -14 -6 -10 -15 7
-19 -3 -19 -25 1 -16 14 -18 14 -28 -5 -6 -11 -17 -18 -25 -15 -9 4 -13 -3
-12 -23 1 -23 -3 -28 -21 -27 -13 1 -23 -3 -23 -7 0 -5 -9 -9 -20 -9 -20 0
-45 -34 -35 -49 3 -5 19 -12 35 -16 16 -4 33 -11 36 -17 7 -11 6 -11 -63 10
-26 8 -33 8 -33 -3 0 -7 -6 -16 -12 -18 -7 -3 10 -3 37 -1 32 3 45 1 36 -5 -7
-5 -10 -14 -6 -21 5 -9 2 -10 -11 -3 -38 17 -67 9 -77 -20 -10 -32 -4 -45 16
-29 11 9 18 5 36 -18 12 -17 19 -35 16 -40 -4 -6 1 -7 11 -3 11 4 15 2 13 -6
-3 -7 -8 -12 -12 -12 -4 1 -19 1 -33 1 -14 0 -23 4 -19 9 9 15 -25 42 -49 39
-15 -2 -22 -11 -24 -33 -2 -16 -8 -35 -14 -42 -11 -13 -2 -86 14 -115 5 -12 5
-18 -2 -18 -5 0 -10 4 -10 10 0 5 -7 7 -15 4 -8 -4 -15 -1 -15 6 0 6 -4 8 -10
5 -5 -3 -10 1 -10 10 0 9 -5 13 -10 10 -22 -14 -35 22 -37 103 -2 45 1 82 6
82 5 0 12 -8 14 -17 3 -10 4 9 4 43 0 33 4 67 8 75 5 8 10 21 10 29 1 8 2 26
4 40 1 14 8 34 17 45 13 17 16 18 24 5 7 -11 10 -5 11 23 2 42 0 35 19 105 13
49 40 91 40 63 0 -9 4 -8 13 1 19 22 39 59 33 65 -5 6 6 21 50 69 17 18 29 36
25 40 -3 4 0 4 7 0 9 -5 9 -12 1 -28 -8 -15 -8 -23 2 -32 9 -8 11 -7 6 7 -4
10 -3 16 3 12 5 -3 21 1 34 10 19 13 29 14 45 5 18 -9 21 -8 21 9 0 11 9 22
20 26 19 6 22 10 24 38 1 13 1 13 51 77 19 25 38 53 41 63 6 16 34 23 47 11 3
-4 0 -13 -8 -21 -22 -21 -19 -36 5 -23 11 6 20 21 21 33 0 12 3 16 6 9 2 -6
10 -9 16 -5 7 4 8 0 4 -10 -4 -10 -10 -25 -13 -34 -5 -15 -4 -15 5 -3 14 21
28 3 14 -19 -9 -14 -9 -21 0 -30 8 -8 8 -14 -1 -23 -15 -15 -16 -48 -1 -48 5
0 7 5 3 12 -4 7 -3 8 4 4 7 -4 12 -14 12 -22 0 -8 4 -13 8 -10 18 11 32 -13
36 -63 2 -29 8 -56 14 -60 6 -4 12 -22 14 -40 2 -24 -3 -36 -17 -44 -19 -10
-19 -10 0 -18 28 -11 57 -11 50 0 -3 5 -1 12 5 16 5 3 10 1 10 -6 0 -8 4 -8
16 2 14 12 14 14 -5 20 -14 6 -19 15 -16 30 5 25 15 38 15 20 0 -7 6 -11 14
-8 8 3 13 -1 12 -11 0 -9 4 -16 11 -15 7 2 10 -4 7 -12 -4 -10 0 -15 12 -16
16 0 15 -2 -3 -9 -28 -11 -30 -20 -3 -13 12 3 22 -1 26 -11 7 -18 46 -21 76
-5 17 9 19 8 14 -9 -8 -23 21 -39 38 -22 8 8 6 15 -6 24 -10 7 -15 16 -12 19
4 3 13 0 21 -8 8 -8 26 -15 41 -15 24 1 25 2 8 11 -10 6 -26 19 -35 28 -16 16
-16 19 0 47 10 16 18 32 18 37 1 12 -27 8 -31 -5 -3 -9 -6 -9 -12 0 -4 7 -3
12 3 12 6 0 8 6 5 13 -3 10 6 14 32 15 37 2 70 29 54 46 -4 4 -2 27 6 49 8 23
16 59 18 82 2 22 4 42 5 44 1 2 11 -9 23 -25 34 -46 35 -46 57 -39 27 8 27 35
0 58 -16 14 -24 16 -35 7 -10 -9 -17 -9 -29 3 -9 9 -24 13 -37 9 -21 -5 -22
-4 -9 12 8 9 21 14 29 11 8 -3 16 3 19 15 5 20 23 28 23 10 0 -5 7 -10 15 -10
19 0 56 36 47 46 -4 4 -2 4 4 1 6 -3 27 3 47 13 20 11 44 20 52 20 9 0 15 9
15 26 0 14 -4 23 -9 19 -6 -3 -6 6 -1 24 9 33 29 71 30 57 0 -5 14 6 30 24 17
19 28 40 26 46 -3 7 5 15 17 17 l22 4 -22 2 c-24 1 -30 15 -13 26 6 4 8 10 5
15 -3 5 -1 11 5 15 16 10 11 22 -9 20 -23 -1 -53 -30 -43 -40 4 -5 1 -5 -6 0
-9 4 -12 19 -10 36 3 16 0 31 -6 33 -6 2 -1 5 12 5 13 1 20 -3 17 -9 -3 -5 0
-10 9 -10 8 0 16 5 18 11 2 7 16 12 30 13 14 1 33 8 42 15 15 13 30 12 69 -4
14 -6 17 -1 18 26 0 30 16 87 18 66 2 -14 61 27 67 46 4 11 12 16 23 12 9 -3
34 4 56 15 22 11 45 20 52 20 7 0 18 10 24 22 22 42 48 61 79 60 27 -1 30 2
28 25 -2 21 5 32 37 54 38 27 44 28 131 24 50 -3 102 -9 116 -14 21 -8 134
-17 148 -12 3 1 41 4 85 6 44 2 98 6 120 9 56 5 180 -17 200 -37 14 -15 51
-23 79 -18 4 1 14 -4 22 -10 8 -6 33 -12 57 -13 23 -1 48 -6 55 -10 7 -4 25
-6 41 -4 33 3 61 -16 61 -43 0 -10 -8 -34 -17 -54 -18 -37 -10 -61 11 -32 18
24 26 21 26 -7 0 -14 5 -28 11 -32 17 -10 6 85 -14 126 -10 18 -17 38 -17 45
0 16 -48 49 -106 73 -111 45 -150 53 -282 51 -154 -2 -285 9 -329 28 -29 12
-243 45 -268 41 -5 0 -23 -2 -40 -4z m-1018 -460 c-3 -3 -12 -4 -19 -1 -8 3
-5 6 6 6 11 1 17 -2 13 -5z m193 -9 c0 -8 -4 -15 -10 -15 -5 0 -10 7 -10 15 0
8 5 15 10 15 6 0 10 -7 10 -15z m-1250 -26 c0 -8 5 -8 15 1 10 8 15 9 15 1 0
-12 -47 -27 -56 -18 -8 7 5 27 17 27 5 0 9 -5 9 -11z m1360 -15 c0 -8 4 -12
10 -9 6 3 7 -1 4 -9 -9 -24 -21 -19 -26 9 -3 14 -1 25 3 25 5 0 9 -7 9 -16z
m-184 -38 c9 -3 14 -9 10 -13 -9 -9 -46 28 -45 46 0 11 3 10 9 -5 4 -12 16
-24 26 -28z m258 -21 c-4 -8 -13 -15 -21 -15 -13 0 -13 3 -3 15 7 8 16 15 21
15 5 0 6 -7 3 -15z m-1297 -21 c-3 -3 -12 -4 -19 -1 -8 3 -5 6 6 6 11 1 17 -2
13 -5z m608 -162 c9 -6 19 -32 12 -32 -1 0 -10 9 -20 20 -16 20 -12 27 8 12z
m-40 -29 c-3 -16 -2 -22 1 -15 10 21 22 13 17 -10 -4 -22 -4 -23 11 -4 9 11
16 16 16 11 0 -5 -7 -17 -17 -27 -9 -10 -13 -21 -9 -25 4 -4 10 -2 14 4 4 6 7
-10 6 -35 -2 -76 -3 -84 -15 -76 -7 4 -9 22 -7 43 6 43 -16 107 -27 79 -14
-35 -28 -19 -21 24 8 46 13 58 27 58 5 0 7 -12 4 -27z m-1155 -16 c0 -20 -40
-59 -53 -53 -7 3 -20 9 -30 12 -15 6 -13 10 15 30 37 26 68 31 68 11z m1560
-97 c0 -5 -4 -10 -10 -10 -5 0 -10 5 -10 10 0 6 5 10 10 10 6 0 10 -4 10 -10z
m-324 -107 c-10 -10 -19 5 -10 18 6 11 8 11 12 0 2 -7 1 -15 -2 -18z m243 -19
c-15 -18 -22 -13 -13 10 3 9 10 13 16 10 5 -3 4 -12 -3 -20z m-239 -37 c16 4
17 1 10 -31 -4 -19 -5 -37 -2 -40 3 -4 0 -6 -7 -6 -7 0 -11 6 -8 14 3 8 2 16
-2 18 -4 2 -11 17 -14 33 -3 17 -4 25 -1 19 3 -7 13 -10 24 -7z m150 3 c0 -5
-2 -10 -4 -10 -3 0 -8 5 -11 10 -3 6 -1 10 4 10 6 0 11 -4 11 -10z m-500 -15
c0 -8 -4 -15 -9 -15 -13 0 -22 16 -14 24 11 11 23 6 23 -9z m592 -27 c-7 -7
-12 -8 -12 -2 0 14 12 26 19 19 2 -3 -1 -11 -7 -17z m-32 -50 c0 -12 -14 -9
-36 7 -16 12 -17 16 -5 24 14 9 40 -11 41 -31z m-76 17 c-4 -8 -10 -12 -15 -9
-11 6 -2 24 11 24 5 0 7 -7 4 -15z m40 -50 c-5 -11 -2 -13 10 -9 11 4 16 0 16
-12 0 -11 7 -28 15 -38 14 -19 12 -36 -6 -36 -5 0 -9 7 -9 16 0 9 -5 12 -12 8
-6 -4 -8 -3 -5 3 3 5 -1 22 -8 37 -8 16 -12 32 -9 37 9 14 14 10 8 -6z m-440
-334 c3 -5 -1 -12 -10 -15 -8 -3 -12 -11 -8 -17 4 -8 3 -9 -5 -5 -6 4 -9 12
-6 17 4 5 1 9 -5 9 -6 0 -8 5 -5 10 8 12 32 13 39 1z m331 -31 c3 -6 -1 -7 -9
-4 -18 7 -21 14 -7 14 6 0 13 -4 16 -10z m-589 -79 c0 -15 -3 -17 -13 -9 -7 6
-10 14 -7 19 9 15 20 10 20 -10z m-166 -326 c0 -9 -9 -15 -22 -15 -22 1 -23 1
-4 15 25 19 26 19 26 0z m-124 -37 c-9 -12 -16 -19 -16 -15 0 11 24 47 28 42
2 -2 -3 -14 -12 -27z m179 -48 c3 -5 -1 -10 -9 -10 -9 0 -16 -7 -16 -16 0 -11
-5 -14 -16 -10 -9 3 -20 6 -25 6 -4 0 -6 6 -3 14 3 8 12 12 20 9 8 -3 14 0 14
6 0 14 27 15 35 1z m-3295 -210 c13 -9 13 -10 0 -10 -8 0 -22 5 -30 10 -13 9
-13 10 0 10 8 0 22 -5 30 -10z m190 -150 c0 -5 -4 -10 -10 -10 -5 0 -10 5 -10
10 0 6 5 10 10 10 6 0 10 -4 10 -10z m2530 -9 c0 -5 -11 -16 -25 -25 -14 -9
-25 -21 -25 -27 0 -7 6 -7 18 2 14 11 14 10 -2 -8 -18 -22 -43 -22 -30 -1 4 7
2 8 -4 4 -6 -4 -9 -12 -7 -19 5 -13 -86 -80 -125 -92 -12 -4 -49 -34 -82 -67
-33 -32 -63 -57 -65 -54 -3 3 -16 -8 -30 -24 -13 -16 -29 -27 -36 -25 -7 2
-28 -15 -47 -39 -19 -23 -56 -57 -82 -75 -26 -18 -60 -45 -76 -59 -16 -15 -54
-49 -85 -75 -59 -51 -253 -245 -286 -287 -11 -14 -20 -20 -21 -14 -1 39 380
440 408 429 7 -3 11 -1 8 4 -3 4 30 39 74 76 44 38 80 71 80 75 0 6 45 32 60
34 3 1 25 20 49 44 24 23 48 42 53 42 4 0 16 8 26 18 26 25 105 87 112 87 16
0 80 51 80 64 0 10 3 11 14 2 10 -9 15 -8 20 4 6 16 26 21 26 6z m-1800 -16
c0 -8 5 -15 10 -15 6 0 10 -4 10 -10 0 -13 -33 -13 -65 2 -37 17 -32 38 10 38
24 0 35 -5 35 -15z m2096 -112 c-6 -51 -6 -51 -15 -28 -7 17 5 65 16 65 2 0 2
-17 -1 -37z m-664 -43 c6 0 8 7 5 14 -4 10 -1 13 9 9 19 -7 18 -17 -7 -39 -27
-25 -53 -8 -55 37 l-2 33 20 -27 c11 -15 24 -27 30 -27z m-412 14 c0 -8 -4
-12 -10 -9 -5 3 -10 10 -10 16 0 5 5 9 10 9 6 0 10 -7 10 -16z m937 -26 c-3
-8 -6 -5 -6 6 -1 11 2 17 5 13 3 -3 4 -12 1 -19z m-217 -62 c0 -3 -4 -8 -10
-11 -5 -3 -10 -1 -10 4 0 6 5 11 10 11 6 0 10 -2 10 -4z m127 -158 c-3 -7 -5
-2 -5 12 0 14 2 19 5 13 2 -7 2 -19 0 -25z"/>
<path d="M4734 3739 c-19 -22 -19 -22 4 -8 12 8 22 17 22 21 0 12 -6 9 -26
-13z"/>
<path d="M7390 6025 c-13 -14 -20 -25 -17 -25 10 0 49 41 45 46 -3 2 -15 -7
-28 -21z"/>
<path d="M7420 6001 c0 -6 4 -13 10 -16 6 -3 7 1 4 9 -7 18 -14 21 -14 7z"/>
<path d="M7191 5963 c22 -30 42 -43 66 -43 14 0 23 -6 23 -16 0 -8 5 -25 11
-36 11 -21 12 -21 26 -2 11 15 15 16 22 5 16 -25 23 8 10 47 -24 68 -52 83
-69 36 -10 -25 -30 -25 -30 1 0 14 -21 25 -52 25 -18 0 -19 -2 -7 -17z"/>
<path d="M8362 5905 c0 -5 -3 -28 -6 -50 l-6 -40 12 32 c16 40 40 66 31 34 -4
-17 -2 -20 11 -15 28 11 16 49 -15 49 -14 1 -26 -4 -27 -10z"/>
<path d="M8274 5683 c23 -22 29 -25 36 -13 11 18 -13 40 -43 40 -18 0 -17 -3
7 -27z"/>
<path d="M8420 5649 c0 -5 5 -7 10 -4 6 3 10 8 10 11 0 2 -4 4 -10 4 -5 0 -10
-5 -10 -11z"/>
<path d="M7010 5640 c0 -5 5 -10 11 -10 6 0 9 -7 5 -15 -4 -10 1 -15 14 -15
17 0 18 3 8 25 -11 24 -38 35 -38 15z"/>
<path d="M7166 5611 c-4 -7 -5 -15 -2 -18 9 -9 19 4 14 18 -4 11 -6 11 -12 0z"/>
<path d="M7430 5600 c-20 -12 4 -20 36 -11 l29 8 -27 5 c-15 3 -32 2 -38 -2z"/>
<path d="M8210 5599 c0 -5 5 -7 10 -4 6 3 10 8 10 11 0 2 -4 4 -10 4 -5 0 -10
-5 -10 -11z"/>
<path d="M8252 5603 c-6 -3 -10 -9 -6 -14 3 -5 1 -9 -4 -9 -6 0 -15 -13 -21
-30 -8 -24 -7 -30 4 -30 7 0 15 3 18 8 2 4 2 2 1 -5 -5 -21 17 -26 31 -7 10
13 14 15 15 5 0 -10 3 -11 14 -2 8 7 22 11 32 9 9 -2 19 3 22 11 3 9 0 11 -9
6 -11 -6 -12 -5 -1 6 16 18 15 29 -3 29 -8 0 -15 5 -15 12 0 6 -8 3 -20 -7
-11 -10 -17 -22 -13 -28 4 -6 1 -7 -6 -2 -9 5 -10 10 -2 18 14 14 14 30 0 21
-6 -3 -14 -2 -18 3 -3 6 -12 8 -19 6z"/>
<path d="M8140 5560 c0 -5 9 -10 19 -10 11 0 23 5 26 10 4 6 -5 10 -19 10 -14
0 -26 -4 -26 -10z"/>
<path d="M8250 5460 c0 -5 5 -10 10 -10 6 0 10 5 10 10 0 6 -4 10 -10 10 -5 0
-10 -4 -10 -10z"/>
<path d="M7500 5450 c-121 -16 -274 -51 -391 -90 -123 -41 -278 -113 -319
-150 l-25 -22 35 21 c30 17 196 63 308 86 28 6 31 9 20 22 -11 14 -9 15 20 8
18 -4 55 -4 82 0 39 5 47 10 43 22 -5 13 -1 15 23 8 33 -8 36 -9 86 -7 30 2
35 5 31 21 -4 15 0 18 21 14 15 -3 29 -9 32 -14 7 -11 65 -11 82 -1 8 5 10 16
6 27 -8 20 -2 18 48 -17 26 -18 128 -27 128 -10 0 4 9 13 20 20 17 10 20 10
20 -3 0 -8 -8 -16 -17 -16 -10 -1 9 -5 42 -10 39 -6 61 -5 63 1 2 6 9 10 14
10 6 0 8 -3 5 -7 -4 -3 26 -24 65 -46 102 -55 147 -113 178 -225 15 -58 21
-50 9 13 -18 89 -19 94 -29 119 -5 13 -6 26 -4 29 11 11 -27 66 -75 109 -40
36 -65 49 -129 66 -92 25 -285 36 -392 22z"/>
<path d="M6684 5138 c-43 -32 -49 -38 -38 -38 10 1 83 59 73 60 -4 0 -19 -10
-35 -22z"/>
<path d="M6570 5045 c-7 -9 -11 -17 -9 -20 3 -2 10 5 17 15 14 24 10 26 -8 5z"/>
<path d="M8110 4998 c0 -25 3 -29 10 -18 13 20 13 50 0 50 -5 0 -10 -15 -10
-32z"/>
<path d="M5725 4950 c-5 -9 11 -50 20 -50 2 0 3 14 3 30 -1 30 -11 39 -23 20z"/>
<path d="M8111 4944 c0 -11 3 -14 6 -6 3 7 2 16 -1 19 -3 4 -6 -2 -5 -13z"/>
<path d="M6355 4880 c3 -5 10 -10 16 -10 5 0 9 5 9 10 0 6 -7 10 -16 10 -8 0
-12 -4 -9 -10z"/>
<path d="M5480 4703 c0 -4 5 -15 10 -23 8 -13 10 -13 10 2 0 9 -4 20 -10 23
-5 3 -10 3 -10 -2z"/>
<path d="M6258 4703 c7 -3 16 -2 19 1 4 3 -2 6 -13 5 -11 0 -14 -3 -6 -6z"/>
<path d="M6275 4670 c3 -5 8 -10 11 -10 2 0 4 5 4 10 0 6 -5 10 -11 10 -5 0
-7 -4 -4 -10z"/>
<path d="M5875 4599 c4 -13 10 -27 14 -31 11 -11 61 -21 61 -11 0 8 -34 37
-69 57 -10 7 -12 3 -6 -15z"/>
<path d="M6230 4521 c0 -9 24 -21 43 -21 6 0 2 7 -9 15 -22 17 -34 19 -34 6z"/>
<path d="M6435 4520 c4 -6 11 -8 16 -5 14 9 11 15 -7 15 -8 0 -12 -5 -9 -10z"/>
<path d="M5927 4509 c7 -7 15 -10 18 -7 3 3 -2 9 -12 12 -14 6 -15 5 -6 -5z"/>
<path d="M5571 4394 c0 -11 3 -14 6 -6 3 7 2 16 -1 19 -3 4 -6 -2 -5 -13z"/>
<path d="M7316 4010 c3 -14 10 -32 15 -40 7 -13 8 -13 8 0 0 8 -6 26 -15 40
l-15 25 7 -25z"/>
<path d="M5390 3960 c0 -5 7 -7 15 -4 8 4 15 8 15 10 0 2 -7 4 -15 4 -8 0 -15
-4 -15 -10z"/>
<path d="M5563 3943 c9 -9 19 -14 23 -11 10 10 -6 28 -24 28 -15 0 -15 -1 1
-17z"/>
<path d="M5600 3950 c0 -5 5 -10 11 -10 5 0 7 5 4 10 -3 6 -8 10 -11 10 -2 0
-4 -4 -4 -10z"/>
<path d="M5345 3943 c-38 -9 -34 -18 5 -15 22 2 37 8 34 13 -5 9 -7 10 -39 2z"/>
<path d="M7340 3941 c0 -5 7 -14 15 -21 8 -7 15 -19 15 -28 0 -8 3 -12 6 -9 9
8 -16 67 -27 67 -5 0 -9 -4 -9 -9z"/>
<path d="M5525 3930 c-4 -6 -21 -8 -38 -5 -18 3 -39 1 -47 -4 -17 -12 -14 -16
19 -26 20 -6 23 -4 18 9 -6 14 -3 15 13 6 11 -6 20 -18 20 -26 0 -10 6 -13 18
-10 10 4 27 -1 38 -9 24 -18 31 -18 38 0 3 10 -7 27 -27 45 -35 32 -43 35 -52
20z m60 -50 c3 -5 2 -10 -4 -10 -5 0 -13 5 -16 10 -3 6 -2 10 4 10 5 0 13 -4
16 -10z"/>
<path d="M5391 3903 c-12 -25 9 -45 27 -26 11 11 10 14 -3 20 -13 5 -14 7 -3
14 9 6 9 9 1 9 -7 0 -16 -8 -22 -17z"/>
<path d="M6960 3890 c0 -5 5 -10 11 -10 5 0 8 -4 4 -9 -3 -5 3 -12 12 -15 10
-3 -2 -2 -27 1 -24 3 -54 12 -65 19 -19 12 -37 8 -166 -44 -79 -32 -143 -62
-141 -68 1 -5 21 -14 45 -21 60 -16 107 -36 107 -45 0 -4 6 -8 13 -8 8 0 22
-9 32 -20 10 -11 24 -20 32 -20 7 0 13 -4 13 -10 0 -5 7 -10 15 -10 8 0 15 -4
15 -8 0 -4 12 -15 28 -24 33 -20 252 -237 252 -250 0 -10 86 -109 198 -229 35
-37 77 -73 93 -79 16 -7 29 -16 29 -21 0 -16 49 -41 69 -34 25 8 53 78 45 112
-6 21 -4 24 7 18 11 -7 12 -6 2 6 -7 9 -15 37 -18 64 -4 31 -14 55 -27 67 -20
17 -20 19 -4 44 17 25 17 25 -3 14 -12 -6 -21 -7 -22 -3 -1 12 -7 44 -14 86
-5 23 -4 37 3 37 20 0 -1 40 -39 75 -22 19 -34 35 -28 35 8 0 10 14 6 39 -3
25 0 47 9 59 12 17 11 20 -11 30 -17 8 -25 8 -27 0 -3 -7 -12 -9 -21 -5 -15 5
-15 10 -5 26 7 11 16 17 20 15 15 -9 8 13 -11 34 -10 12 -34 25 -52 28 -19 4
-38 12 -44 18 -5 7 -18 15 -29 19 -11 4 -16 13 -12 22 3 9 0 15 -10 15 -11 0
-14 -6 -9 -22 5 -18 4 -20 -4 -8 -6 9 -22 14 -42 12 -26 -3 -31 -1 -26 12 4 9
3 16 -1 17 -4 0 -18 2 -32 4 -14 1 -33 -4 -42 -13 -11 -9 -18 -10 -18 -4 0 6
5 14 10 17 6 3 10 12 10 18 0 8 -3 7 -9 -2 -11 -17 -90 -5 -98 15 -6 16 -23
19 -23 4z m157 -86 c-3 -3 -12 -4 -19 -1 -8 3 -5 6 6 6 11 1 17 -2 13 -5z
m313 -158 c0 -8 -4 -17 -8 -20 -12 -7 -52 5 -52 16 0 5 9 6 20 3 11 -4 20 -2
20 4 0 6 5 11 10 11 6 0 10 -6 10 -14z m0 -70 c0 -3 -4 -8 -10 -11 -5 -3 -10
-1 -10 4 0 6 5 11 10 11 6 0 10 -2 10 -4z"/>
<path d="M5441 3876 c-7 -9 -4 -12 14 -11 31 0 41 11 16 18 -11 3 -25 0 -30
-7z"/>
<path d="M7391 3867 c-1 -9 4 -26 11 -37 7 -10 9 -23 5 -27 -5 -4 -12 -1 -17
7 -7 12 -12 12 -22 2 -9 -9 -9 -12 5 -12 10 0 17 -8 17 -18 0 -12 8 -18 25
-20 14 -1 25 2 25 7 0 18 -49 115 -49 98z"/>
<path d="M5175 3860 c-3 -5 1 -10 9 -10 8 0 18 5 21 10 3 6 -1 10 -9 10 -8 0
-18 -4 -21 -10z"/>
<path d="M5288 3833 c7 -3 16 -2 19 1 4 3 -2 6 -13 5 -11 0 -14 -3 -6 -6z"/>
<path d="M7339 3823 c-13 -16 -12 -17 4 -4 16 13 21 21 13 21 -2 0 -10 -8 -17
-17z"/>
<path d="M2360 3800 c0 -5 5 -10 11 -10 5 0 7 5 4 10 -3 6 -8 10 -11 10 -2 0
-4 -4 -4 -10z"/>
<path d="M7448 3754 c-8 -7 2 -44 12 -44 4 0 5 11 2 25 -5 27 -6 28 -14 19z"/>
<path d="M5355 3690 c3 -5 8 -10 11 -10 2 0 4 5 4 10 0 6 -5 10 -11 10 -5 0
-7 -4 -4 -10z"/>
<path d="M7460 3693 c0 -7 5 -15 11 -18 6 -4 8 -13 5 -21 -3 -8 -1 -14 4 -14
6 0 10 6 10 13 -1 15 -30 55 -30 40z"/>
<path d="M7486 3612 c-2 -4 -1 -14 5 -22 7 -12 9 -10 9 8 0 23 -5 28 -14 14z"/>
</g>
</svg>
